<?xml version="1.0" encoding="UTF-8"?><svg id="Layer_2" xmlns="http://www.w3.org/2000/svg" viewBox="0 0 896.86 649.1"><defs><style>.cls-1{fill:#eef3e5;}</style></defs><g id="Layer_1-2"><path class="cls-1" d="M347.99,403.52c-1.23-3.07-1.17-6,2.56-6.55,14.41-2.11,32.23-1.49,46.99-1.94,9.32-.29,21.12-1.81,30.23-1,.98.09,1.79.09,2.61.74,1.08.85.54,1.88,1.43,2.15,12.85-29.52,39.75-51.08,71.81-56.05,74.44-11.55,92.23,66.17,49.09,115.29-48.62,55.37-146.35,48.71-127.47-41.59l4.91-14.76c-6.03,1.23-10.37,2.52-15.35,6.24-16.87,12.6-27.7,34.41-32.24,54.59-1.28,5.69-2.82,22.98-5.22,26.44-2.07,2.98-7.86,3.89-8.63.03-.67-3.35,3.73-17.66-1.02-19.1-2.17-.66-4.29.48-6.23,1.26-10.52,4.24-20.35,10.12-31.09,14-72.85,26.37-145.16-15.91-128.19-98.45,3.13-15.23,9.65-30.83,16.87-44.54,1.57-2.97,6.59-10.03,7.14-12.58.85-3.96-9.15-6.25-12.27-7.21-37.04-11.43-93.44-13.83-101.94,35.05-1.97,11.32.76,23.87-6.66,33.64-11.31,14.88-33.26,9.69-35.16-9.37-2.38-23.83,23.31-48.44,42.01-59.58,36.85-21.95,81.33-19.49,119.49-2.12,4.24.9,6.08-3.61,8.51-6.14,29.4-30.67,67.98-43.59,110.37-41.75,32.81,1.43,82,15.88,72.43,58.55-5.05,22.51-27.57,30.31-48.05,33.03-32.53,4.32-67.25-.51-97.68-12.52-5.93-2.34-13.66-6.93-19.28-8.54s-6.7,2.18-8.83,6.57c-19.44,39.91-21.79,105.9,25.85,126.57,31.72,13.76,67.11,1.12,86.73-25.98,9.39-12.97,21.77-35.32-1.25-41.75-4.25-1.19-8.53-.97-12.45-2.66ZM261.18,332.49c.8.88,4.45,2.47,5.76,3.11,32.04,15.62,80.38,24.97,115.09,15.13,38.88-11.02,38.89-42.42,3.91-59.29-24.46-11.79-62.92-12.76-87.02.16-12.29,6.59-29.94,22.4-37.13,34.35-1.29,2.14-2.66,4.28-.61,6.53ZM513.28,349.1c-44.76,3.02-85.2,103.97-43.52,129.59,17.88,10.99,39.46-2.49,50.8-16.77,15.25-19.22,27.61-58.12,23.86-82.35-2.48-16.03-13.19-31.68-31.13-30.47Z"/><path class="cls-1" d="M224.7,101.74c.65.65,2.47,1.11,3.44,1.12h100.32c3.51-.34,4.28-1.68,5.26-4.81,3.58-19.38,9.93-38.73,13.44-58.04,1.31-7.17,2.83-16.13-.73-22.82-4.55-8.56-16.52-8.08-24.84-9.7-3.52-2.77-1.94-6.46,2.5-6.86,21.95-1.98,46.87,1.56,69.13,0,4.64,1.58,24.43-.97,27.1,1.69,1.66,3.18-.52,3.82-3,4.71-5.37,1.93-10.08,2.34-15.57,5.05-14.25,7.03-21.46,16.57-25.92,31.65-7.74,26.15-13.76,55.4-20.05,82.14-3.5,14.87-7.8,30.59-10.64,45.49-2.89,15.17-2.34,26.74,12.95,34.24,2.59,1.27,15.22,4.72,15.73,5.38,2.23,2.92-.88,7.84-4.65,7.43l-94.95.06c-4.21-.65-5.43-5.04-1.63-7.41,8.73-1.41,16.24-3.06,23.72-7.94,13.54-8.84,16.09-18.61,20.24-33.49,5.02-18,8.69-36.74,12.13-55.04.07-2.03-1.32-2.59-2.96-3.27l-100.92-.34c-2.34-.07-3.87,1.2-5.24,2.92-4.22,15.68-8.53,31.56-12.02,47.47-2.59,11.77-7.32,29.55-.63,40.46,4.82,7.86,13.4,6.16,21.13,8.14,6.29,1.61,4.35,7.2-1.35,7.98-4.98.68-10.75-.74-15.77.54-23.91-1.55-50.31,2-73.92,0-3.03-.26-6.07-1.11-4.81-4.84.97-2.87,6.8-2.43,9.48-2.99,15.41-3.21,25.8-9.6,30.47-25.18,15.16-50.59,23.04-105.29,36.93-156.42,1.42-10.34,2.18-17.41-10.14-18.34-23.99-1.8-56.33.4-79.81,5.62C73.11,26.57,28.16,56.96,14.31,103.91c-11.88,40.25,14.92,91.74,61.64,84.18,14.69-2.38,32.06-12.9,31.07-29.84-1.39-23.82-39.5-32.51-21.21-60.08,14.02-21.14,37.59-10.24,46.58,9.29,16.08,34.96-6.24,76.01-41.78,86.66s-66.91-.68-82.82-34.5c-10.89-23.15-9.77-45.45-.29-68.76C35.68,21.52,108.14,2.14,176.81.15c31.8,1.04,64.8-1.1,96.47.48,1.82.09,4.99.27,6.67.53,3.4.51,3.75,4.72.87,6.1-21.28,2.6-36.61,11.03-43.06,32.26-5.79,19.05-9.01,39.55-14.13,58.84-.11.94.46,2.78,1.07,3.39Z"/><path class="cls-1" d="M706.41,358.71c-.73.72-1.19,2.1-1.47,3.09-11.94,44.94-21.16,90.64-33.37,135.5-12.42,45.64-30.08,96.14-69,125.78-37.77,28.77-111.58,42.76-138.85-6.9-19.62-35.73,5.62-89.43,43.53-101.37,22-6.93,51.22-2.09,64.57,18.22,17.2,26.16-13.18,53.23-34.46,30.63-7.31-7.76-13.09-17.45-23.99-21.1-37.25-12.49-55.49,44.04-40.48,70.23,11.65,20.33,33.92,26.37,56.03,23.48,75.99-9.9,100.4-78,116.56-142.99,10.68-42.96,19.93-86.32,30.42-129.34,2.24-8.88-8.99-6.06-14.52-6.33-2.91-.14-8.3-.19-10.8-.71-6.3-1.32-4.59-8.09.79-8.86,7.76-1.1,18.21.44,26.35-.51,2.59-.3,3.56-2,4.44-4.2,10.18-25.51,15.06-51.39,39.78-68.17,17.26-11.72,58.02-19.91,75.22-5.84,11.57,9.47,9.51,35.46-2.19,44.33-6.89,5.22-19.17,6.42-25.15-.67-9.26-10.97,4.54-20.12,8.96-29.91,2-4.44,3.12-7.47-1.85-10.3-10.37-5.9-27.1,2.22-35.6,8.83-13.74,10.69-23.61,34.69-28.48,51.16-.84,2.85-3.58,10.92-2.5,13.31.18.4,1.08,1.17,1.49,1.38,2.77,1.41,18.46.31,22.98.52,2.5.12,5.31.72,7.92.72,4.34,2.74,1.3,7.77-3.18,8.38-8.39,1.14-19.1-.68-27.8.03-1.63.13-4.16.48-5.33,1.62Z"/><path class="cls-1" d="M687.4,67.44c5.75-1.22,4.96,4.43,4.31,8.15-1.01,5.76-3.81,11.53-5.38,17.17-6.46,23.29-11.67,48.27-16.8,71.96-2.02,9.32-7.91,30.17-6.9,38.57.87,7.21,6.72,7.27,10.99,2.46,3.71-4.17,6.95-15.9,10.38-17.93,6.78-4.01,6.36,3.14,4.86,7.74-2.59,7.93-7.38,17.26-15.4,20.58-11.59,4.81-26.97,2.83-34.79-7.61-1.33-1.78-3.57-7.47-4.89-8.07-3.01-1.38-11.76,5.51-14.85,7.21-25.06,13.77-76.3,21.09-73.43-21.62,1.25-18.55,10.3-41.13,13.22-60.18,1.78-11.6.7-19.17-12.49-20.63-2.59-.29-8.04.91-9.13-2.38-2.03-6.08,6.55-4.73,10.51-5.38,12.12-2,28.07-8.15,36.8-16.93,4.13-4.16,7.16-11.68,14.05-11.23,2.28.77.93,6.68.58,8.58-2.64,14.44-8.33,30.99-11.92,45.65-4.39,17.93-14.09,50.92-12.82,68.3,1.84,25.3,38.48,11.03,50.14,1.16,14.34-12.13,22.32-46.42,25.54-64.65,1.7-9.63,5.15-22.94-7.9-25.41-4.28-.81-11.53,1.02-12.4-4.43s7.97-3.59,11.08-3.85c11.79-.99,22.1-3.58,30.96-11.74,4.01-3.7,10.97-14.49,15.69-15.49Z"/><path class="cls-1" d="M468.67,67.95c37.23-2.46,66.95,22.01,64.86,60.54-2.4,44.18-42.21,84.86-85.69,90.38-56.95,7.23-80.59-38.26-61.47-87.86,13.45-34.9,44.22-60.55,82.31-63.06ZM470.59,77.07c-44.76,3.02-85.2,103.97-43.52,129.59,17.88,10.99,39.46-2.49,50.8-16.77,15.25-19.22,27.61-58.12,23.86-82.35-2.48-16.03-13.19-31.68-31.13-30.47Z"/><path class="cls-1" d="M769.57,81.24c1.11.2,1.47-.28,2.17-.94,3.45-3.25,8.6-12.36,12.03-16.76,17.14-22.01,52.22-59.36,81.03-62.41,18-1.91,34.42,9.37,31.77,28.9-2.06,15.17-20.2,20.95-31.77,11.39-9.31-7.7-7.22-22.83-24.01-16.79-14.95,5.38-28.02,19.06-38.38,30.71-18.92,21.27-32.75,46.38-45.22,71.84-3.58,18.98-10.26,38.5-12.98,57.54-1.6,11.19-1.74,18.61,10.15,23.28,3.1,1.22,10.6,1.84,12.04,4.27,2.23,3.75-.43,6.15-4.26,6.22h-74.4c-3.8.23-5.6-4.27-2.87-6.75,1.18-1.07,6.66-2.37,8.73-3.26,14.14-6.06,19.19-13.89,23.04-28.29,4.63-17.29,8.76-36.26,12.38-53.83,1.94-9.41,6.32-19.07-5.19-24.09-3.18-1.39-5.13-.92-8.14-1.46-4.26-.76-5.47-4.46-1.8-6.85,16.59-2.53,33.74-8.84,45.6-21.09,2.24-2.32,5.79-8.29,9.04-8.64,7.07-.76-.01,13.67,1.02,17.02Z"/><path class="cls-1" d="M655.25,235.34c3.45-1.04,7.1,2.72,5.77,6.26-14.74,68.91-33.48,137.15-47.62,206.17-2.49,12.16-7.67,32.53,9.65,35.46,2.78.47,7.62-.5,8.94,2.57,1.78,4.11-5.27,4.97-8.01,5.17-8.72.65-17.74-.46-26.39-.52-12.79-.09-27.89,1.08-40.34.04-6.23-.52-5.05-6.64.13-7.58,6.85-1.24,9.3-.54,15.22-5.4,13.05-10.71,16.87-38.88,20.65-55.15,11.03-47.51,20.7-95.35,31.77-142.85,3.19-12.59-19.1-6.23-21.9-10.48-1.64-2.5.97-4.99,3.4-5.62,2.26-.58,4.18-.09,6.33-.39,11.61-1.63,21.45-7.37,30.05-15.04,2.08-1.86,11.26-12.31,12.33-12.63Z"/></g></svg>