<?xml version="1.0" encoding="UTF-8"?>
<svg id="Layer_1" xmlns="http://www.w3.org/2000/svg" version="1.1" viewBox="0 0 211.6 59.3">
  <!-- Generator: Adobe Illustrator 30.2.1, SVG Export Plug-In . SVG Version: 2.1.1 Build 1)  -->
  <defs>
    <style>
      .st0 {
        fill: #edf3e3;
      }
    </style>
  </defs>
  <path class="st0" d="M21.8,34.8c0-.4.3-.6.6-.6s.9-.1,1.3-.2c1.1-.2,2.8-1.3,3.3-2.8.2-.8.4-1.5.6-2.3,1.1-4.4,3.2-13.7,4.3-18.1.5-2.2.4-3.1-1.1-3.2-5.4,0-15.9-.6-22.4,8-1.1,1.4-2,3.5-2.4,5.3-.8,3.7,1.3,9.2,5.8,10.1,3,.7,7.1-1,6.7-4-.2-1.8-1.7-2.7-2.8-4.2-2.2-2.8,2-7.4,5.2-3.9,3.9,4.5.8,14.5-9.4,13.4-4.8-.5-8.8-7-6.7-13,1.1-2.9,2.4-5.1,4.7-7.2.8-.8,1.8-1.5,2.8-2,5.1-3.3,11.9-3.9,17.1-3.9h2.8c1.3,0,7.1,0,8.9,0s.8,0,.8.5-.3.5-.7.5c-2,.3-4.5,1.2-5.3,4.2-.4,1.3-1.4,5.6-1.8,7.7-.1.5.1.7.6.7h13.2c.4,0,.6-.2.7-.6.3-1.5,1.2-5.1,1.6-6.9.4-1.7.9-4.1-1-4.7-.6-.2-1.1-.3-2.1-.4-.2,0-.4-.2-.4-.5s.1-.4.4-.5c.2,0,.4,0,.6,0h3.2c2.3,0,4.6,0,6.9,0s2.2,0,2.3.3c.1.4-.4.5-.7.6-.5.1-.9.2-1.3.4-2.4,1.1-3.4,2.4-4,4.5-.9,3.6-2.8,11.3-3.6,14.9-.2.8-.4,1.6-.6,2.3-.6,2.6.5,4.1,3.5,4.8.2,0,.5,0,.5.5s-.3.7-1,.7h-12.3c-.3,0-.5-.3-.5-.5,0-.2.1-.4.4-.5.2,0,.4,0,.5,0,1.4-.2,2.5-.7,3.5-1.7.5-.4.8-1,1.1-1.6.6-1.5,1-3,1.3-4.9.3-1.1.7-2.8,1-4.2,0-.5-.2-.7-.6-.7h-13.2c-.4,0-.6.2-.8.6-.3,1.3-1.2,4.7-1.7,7.2-.6,2.5-.4,4.7,1.4,5l1.7.3c.2,0,.3.1.4.3.1.6-.4.7-1.1.7-3.9,0-7.5,0-11.3,0-.3,0-.7,0-.8-.3Z"/>
  <path class="st0" d="M54.6,25c1.8-6.2,6.5-9.6,11.8-9.8,4.5-.1,8.2,2.9,8.2,7.4,0,7.4-7.5,13.6-14.4,12.6-5.3-.8-6.8-5.8-5.6-10.2ZM63.1,34.1c3.7-.7,6.1-4.8,7.2-10.4.6-2.8-.2-6.5-3-7.2-3.9-1-8.6,5.1-9.1,11.2-.3,3.4,1.6,7,5,6.3Z"/>
  <path class="st0" d="M76.8,30.4c.1-.9,1.5-6.6,1.7-7.6.4-1.9-.4-2.7-1.9-2.7s-.9,0-1-.5c0-.4.4-.5.7-.5,1.1,0,2.4-.5,3.6-1,2.7-1.2,2.7-2.8,3.8-2.8s0,1.5-.4,3.2c-.4,1.2-2.2,8.8-2.5,10.7-.2,1.5-.8,4.2,1.7,4.3,1.8,0,4.1-1.1,5-2,1-1.1,1.5-2.2,2.2-4.8.5-2,.1-.5.7-3.1,0-.4.1-.9.2-1.3.3-1.7-.2-2.5-1.8-2.5h-.5c-.6,0-.8-.9-.3-1,.2,0,.5,0,.7,0,.5,0,2.3,0,3.5-.7,1.9-1.1,2.4-2.9,3.4-2.9s0,2.4-.4,3.7c-.6,2.4-2.1,8.8-2.6,11.2-.2,1-1.1,3.9.2,3.9s1.2-1.1,1.8-2.3c.2-.4.6-.7,1-.6.4.2,0,1,0,1.3-.8,2-1.5,2.8-3.9,2.8s-2.6-.9-3.1-2.1c-.2-.5-.6-.4-1.3.1-2.5,1.7-5,2-6.5,2-2.4,0-4.5-1.5-4-4.8Z"/>
  <path class="st0" d="M96.3,34.7c0-.3,0-.5.4-.6,2.1-.6,3.4-1.6,3.8-3.4.3-1.2.6-2.4.9-3.7.4-1.7.8-3.4,1.1-5v-.6c.3-.6,0-1-.4-1.3-.4-.4-.8-.6-1.4-.6-.2,0-.6,0-.6-.5s0-.4.9-.6c.6,0,1.1-.2,1.7-.4,1.3-.5,2.5-1.1,3.5-2.1.6-.6.5-.6,1-1.1.2-.2.4-.3.6-.2.2,0,.4.3.3.8-.2.7-.3,1-.5,1.7,0,.5,0,.8.5.4,2.1-1.8,3.4-2.5,5.8-2.5s3.1.7,3.8,1.9c.9,1.7.2,4.9-2,5.4-2.3.6-3.2-1.4-2.4-2.7.4-.7,1.1-1.9,1.1-2.4,0-.5,0-.8-.6-1-1.2-.5-3,.1-4.7,1.7-.7.7-1.3,1.4-1.8,2.3-.7,1.5-1.3,3-1.7,4.6-.5,2-.9,3.9-1.1,4.8-.1.6-.2,1.2-.3,1.8-.3,1.7,1.1,2.3,2.3,2.5.6,0,.8.1.8.6s-.3.6-.6.6h-10c-.3,0-.5-.1-.5-.4Z"/>
  <path class="st0" d="M146.5,34.6c.2-1.3.4-2.5-.6-2.2-.3,0-.6.2-.8.4-3.1,1.5-4.7,2.1-8,2.4-6.5.6-12.2-2.9-13-9.3-.4-3.6.3-6.9,1.9-10.1,3.3-6.3,8.5-9.6,15.6-9.6s3.3.3,4.8,1.1c.3.1.6.3.9.4.4,0,.7,0,.8-.4.1-.5,0-.9-.2-1.8-.1-.4,0-.6.3-.8.3-.2.7,0,.9.2,0,.1.1.3.2.4,0,.3.2.6.2.8,1.3,6.4,1.4,7.3,1.6,8.3,0,.6.2,1.3.3,2,0,.6,0,1.1-.4,1.2-.6,0-.8-.5-.9-1.1,0-1-.3-1.9-.5-2.9-.5-1.6-1.2-2.9-2.4-4-1.1-1-2.3-1.6-3.7-1.9-1.8-.4-3.5,0-5.2.7-1.8.7-3.3,1.9-4.6,3.3-2.5,2.7-3.9,5.6-4.6,9.2-.7,3.3-.2,7.7,2.1,10.1,1.9,2.1,4.1,3,6.9,2.7,1.3-.2,2.9-.6,4-1.2,2.5-1.4,4.7-3.9,5.1-5.7.5-1.8-.6-2.8-2.8-2.9-.5,0-.7-.2-.6-.6,0-.4.2-.4.8-.4,1.7,0,3.2-.2,4.8-.2h4.6c.5-.1.9-.2,1,.3,0,.2,0,.4-.5.5-1.2.1-1.9.9-2.6,1.6-.8.7-1.4,1.6-1.9,2.6-.8,1.5-1.3,3.1-1.6,4.8,0,.5-.2,1.2-.3,1.8,0,.8-.4,1.1-.8,1.1-.4,0-.7-.1-.6-.6Z"/>
  <path class="st0" d="M154.8,25c1.8-6.2,6.5-9.6,11.8-9.8,4.5-.1,8.2,2.9,8.2,7.4,0,7.4-7.5,13.6-14.4,12.6-5.3-.8-6.8-5.8-5.6-10.2ZM163.3,34.1c3.7-.7,6.1-4.8,7.2-10.4.6-2.8-.2-6.5-3-7.2-3.9-1-8.6,5.1-9.1,11.2-.3,3.4,1.6,7,5,6.3Z"/>
  <path class="st0" d="M173.8,35.2c-.6,0-.8-.3-.7-.6,0-.3.3-.6.8-.6,2.3,0,3.1-1.7,3.4-3.2.4-1.7.8-3.4,1.2-5.2,1.2-5.3,2.1-9.4,3.2-14.6.1-.6-.3-1.1-2.1-1.1s-.9,0-.9-.3.1-.5.5-.5c2.1,0,4.6-1.7,6.1-3.5.3-.4.5-.6.9-.3.5.3.4.6.2,1.2-1.8,7.8-3.5,15.5-5.2,23.2-.5,2.2-.7,4.3,1.6,4.5.2,0,.4,0,.6,0,.2,0,.3.1.4.3.2.6-.6.6-1.2.6-2.8,0-5.9,0-8.7,0Z"/>
  <path class="st0" d="M161.9,46.7c2.2-10.5,12.4-10.4,15.2-5.7,2.2,3.6-2.1,6.8-4.7,3.8-.6-.7-1.9-2.5-3.4-2.8-2.8-.8-5,1.4-5.7,5.4-.8,4.5,3.2,7.5,7,7.2,12.4-.9,15.1-12.6,17.5-23.3.5-2.1,2.5-10.5,3.1-13,.1-.5,0-.8-.6-.8-.9,0-2.4,0-2.8,0-1.1-.2-.6-1.2.1-1.2,1.4,0,2,0,3.2,0s.6-.2.8-.6c2.2-7.1,4.8-10.8,12.1-10.7,1.4,0,3.3.6,3.9,1.9.5,1.3.4,3.2-.4,4.4-.3.4-.8.9-1.6,1.1-2.3.6-3.4-1.5-2.4-2.7.5-.6,1.1-1.5,1.4-2.2.2-.6-.3-1-.8-1.1-1.5-.4-3.5.6-4.7,1.7-1.7,1.6-3.1,5.2-3.8,7.8-.1.5,0,.7.6.7,1.1,0,2.3,0,3.4,0,.5,0,.6.2.6.6,0,.2-.3.6-.7.6-1.6,0-2.9,0-3.8,0s-.6.2-.7.6c-1.1,4.3-3.7,15.2-3.9,16.1-2.8,11.1-6.7,20.7-18.7,22-7.1.7-11.2-4.6-10.2-9.5Z"/>
</svg>