<?xml version="1.0" encoding="UTF-8"?>
<svg id="Layer_2" xmlns="http://www.w3.org/2000/svg" version="1.1" viewBox="0 0 508.9 891.8">
  <!-- Generator: Adobe Illustrator 29.3.0, SVG Export Plug-In . SVG Version: 2.1.0 Build 146)  -->
  <defs>
    <style>
      .st0 {
        fill: #eef3e5;
      }
    </style>
  </defs>
  <g id="Layer_1-2">
    <path class="st0" d="M305.7,478.7c0,.4,1,1.6,1.5,1.9,2,1.4,11.6,1,14.6,1.2,52.5,3.9,137.8,18,173.7,60,16.3,19.1,13.6,35.7,12.7,59.2-3.3,87.4-27.3,185.3-95.7,244.4-66.5,57.5-165,61.9-236.4,10.5-79.8-57.5-106.1-165.1-109.2-258.7-.8-23.3-2.8-37.8,13.7-56.4,37.6-42.7,127.5-56.6,181.8-59.5,6.6-.6,15.7.5,22.1-.5,2-.3,3.2-2,3.2-4v-242.3c-.5-2-2.1-2.9-4.1-3.2-15-1.7-33.4.9-49,0-47.6-2.7-70.7-38-80.6-80.6-6.3-27.2-6.8-66.7-26.8-87.8C108.1,43.1,56.8,31.1,29.9,23.8c-7.3-2-16.5-3.5-23.4-5.9C-3.2,14.6-1.6,1.1,8.5.2c6.3-.6,12.9.5,19.2.5,36,.3,73.1-.9,108.9.4,45.2,1.6,80.1,14.5,95.4,60.1,9.7,28.9,2.5,62.6,43.3,65.1,2.3.1,12.2.9,12.2-2.6v-12.9l.7-.7h16.8l.7.7v368h0ZM271.5,499.3c-50.1,1.4-121.7,11.6-163.2,41.2-55.3,39.5-2.9,73.7,37.9,89,77.8,29.2,199.9,29.3,278.1,1.6,34.2-12.1,95.8-44.7,50.1-84.7-35.3-31-114.9-45.4-160.9-46.8-3,0-7.3-.7-7.9,3.2v54.6c.8,3.4,9,3.5,12.3,4.5,4.4,1.4,9.9,3.7,10.9,8.7,1.9,9.3-14,12.7-20.7,13.5-10.1,1.2-36.6,1.3-42.9-7.9-5.1-7.5,4-12.5,10.1-14.4,3.1-.9,10.9-1.2,11.8-4l.2-54.5c.1-1.8-1-3.6-2.8-4-3-.7-9.8,0-13.2,0h0ZM419.9,651.7c-20.6,5.8-41.5,10.5-62.7,13.4-50.5,6.8-105.1,6.2-155.2-2.5-38.8-6.7-78.9-18.6-110.7-42.3-2.4-.8-4.7.9-4.8,3.4,4.8,55.8,18.3,113.2,48.3,160.9,40,63.7,101.6,96.6,177.9,87.8,63.9-7.4,83.2-48.8,94.1-106.4,7.1-37.6,9.5-76.2,13.2-114.2h0Z"/>
    <path class="st0" d="M196.7,556.3c19.2-1,20.1,28.9.8,29-18.6.2-19.6-28.1-.8-29Z"/>
  </g>
</svg>