<?xml version="1.0" encoding="UTF-8"?><svg id="Layer_2" xmlns="http://www.w3.org/2000/svg" viewBox="0 0 508.86 891.81"><defs><style>.cls-1{fill:#fff;}</style></defs><g id="Layer_1-2"><path class="cls-1" d="M305.68,478.74c.08.4,1.05,1.63,1.45,1.91,1.97,1.37,11.61.99,14.62,1.21,52.48,3.87,137.83,17.99,173.68,59.96,16.34,19.12,13.57,35.68,12.69,59.24-3.26,87.39-27.27,185.26-95.7,244.44-66.53,57.55-164.96,61.93-236.42,10.48-79.8-57.45-106.11-165.11-109.24-258.74-.78-23.32-2.76-37.75,13.67-56.38,37.64-42.68,127.55-56.62,181.81-59.5,6.63-.59,15.71.51,22.06-.49,2.03-.32,3.25-1.98,3.17-4.03l-.05-242.27c-.48-2.03-2.05-2.94-4.04-3.16-15-1.67-33.43.92-48.97.03-47.57-2.71-70.7-37.97-80.59-80.61-6.3-27.15-6.82-66.71-26.85-87.81C108.05,43.1,56.75,31.13,29.93,23.83c-7.34-2-16.45-3.46-23.39-5.87C-3.25,14.58-1.59,1.07,8.46.17c6.34-.57,12.93.46,19.19.52,35.99.35,73.12-.85,108.94.44,45.23,1.63,80.09,14.54,95.35,60.09,9.69,28.91,2.46,62.62,43.29,65.14,2.33.14,12.23.9,12.23-2.63v-12.95l.72-.72h16.79l.72.72v367.97ZM271.52,499.28c-50.13,1.43-121.67,11.61-163.17,41.21-55.35,39.47-2.88,73.73,37.93,89.02,77.79,29.15,199.92,29.28,278.15,1.57,34.23-12.13,95.77-44.69,50.13-84.69-35.33-30.96-114.88-45.41-160.94-46.79-2.95-.09-7.31-.68-7.91,3.17l.07,54.56c.75,3.36,8.89,3.48,12.26,4.53,4.4,1.37,9.93,3.74,10.94,8.74,1.89,9.34-14.01,12.67-20.67,13.45-10.09,1.19-36.6,1.35-42.94-7.91-5.15-7.53,3.97-12.55,10.08-14.4,3.11-.94,10.88-1.17,11.78-4.05l.24-54.5c.11-1.77-.99-3.56-2.76-3.95-3.04-.68-9.75-.06-13.19.04ZM419.86,651.7c-20.57,5.76-41.46,10.49-62.67,13.36-50.46,6.83-105.07,6.15-155.22-2.48-38.84-6.68-78.87-18.6-110.73-42.33-2.41-.85-4.69.89-4.82,3.37,4.8,55.8,18.33,113.21,48.27,160.93,39.96,63.7,101.64,96.64,177.89,87.78,63.87-7.43,83.2-48.83,94.1-106.43,7.11-37.56,9.45-76.16,13.18-114.19Z"/><path class="cls-1" d="M196.7,556.34c19.24-.97,20.05,28.89.8,29.05-18.57.15-19.57-28.1-.8-29.05Z"/></g></svg>